<?xml version="1.0" standalone="no"?>
<!DOCTYPE svg PUBLIC "-//W3C//DTD SVG 20010904//EN"
 "http://www.w3.org/TR/2001/REC-SVG-20010904/DTD/svg10.dtd">
<svg version="1.0" xmlns="http://www.w3.org/2000/svg"
 width="256.000000pt" height="256.000000pt" viewBox="0 0 256.000000 256.000000"
 preserveAspectRatio="xMidYMid meet">
<metadata>
Created by potrace 1.14, written by Peter Selinger 2001-2017
</metadata>
<g transform="translate(0.000000,256.000000) scale(0.100000,-0.100000)"
fill="#000000" stroke="none">
<path d="M1095 2550 c-536 -85 -971 -502 -1076 -1035 -19 -93 -19 -377 0 -470
51 -258 166 -471 361 -665 158 -158 313 -256 506 -318 143 -47 214 -57 394
-57 180 0 251 10 394 57 193 62 348 160 506 318 158 158 256 313 318 506 47
143 57 214 57 394 0 180 -10 251 -57 394 -62 193 -160 348 -318 506 -189 189
-385 299 -637 355 -82 19 -363 28 -448 15z"/>
</g>
</svg>
